# xmcd
#
# Track frame offsets: 
#        150
#        21846
#        44440
#        63142
#        89617
#        120156
#        139516
#        141546
#        162532
#        190719
#        241951
#        261045
#
# Disc length: 3800 seconds
#
# Revision: 0
# Processed by: cddbd v1.5.2PL0 Copyright (c) Steve Scherf et al.
# Submitted via: ExactAudioCopy v0.95b4
#
DISCID=a30ed60c
DTITLE=Blud Brothers - Live at Jitterz May 24, 2003, Disc 2
DYEAR=2003
DGENRE=Blues-Rock
TTITLE0=Instrumental Jam
TTITLE1=Dead Man Walking
TTITLE2=Black Sheep
TTITLE3=Weighed in the Balance
TTITLE4=Gotta Serve Somebody
TTITLE5=Prodigal Son
TTITLE6=My Wife's Dishwasher
TTITLE7=You Gotta Move
TTITLE8=Spanish Moon
TTITLE9=Stormy Monday
TTITLE10=People Get Ready
TTITLE11=No Symphathy (for the Devil)
EXTD=
EXTT0=
EXTT1=
EXTT2=
EXTT3=
EXTT4=
EXTT5=
EXTT6=
EXTT7=
EXTT8=
EXTT9=
EXTT10=
EXTT11=
PLAYORDER=
